<svg xmlns="http://www.w3.org/2000/svg"><symbol id="icon-github" viewBox="0 0 256 256"><path d="M127.993 8.03C61.727 8.03 8 61.755 8 128.02c0 53.025 34.378 97.993 82.056 113.855 6.005 1.113 8.202-2.606 8.202-5.77 0-2.872-.117-12.32-.16-22.34-33.398 7.267-40.428-14.163-40.428-14.163-5.464-13.87-13.314-17.563-13.314-17.563-10.898-7.454.82-7.278.82-7.278 12.054.836 18.396 12.348 18.396 12.348 10.708 18.354 28.08 13.036 34.92 9.975 1.07-7.748 4.175-13.05 7.616-16.038-26.658-3.032-54.68-13.33-54.68-59.31 0-13.094 4.703-23.8 12.363-32.208-1.244-3.033-5.36-15.22 1.158-31.757 0 0 10.078-3.223 33.016 12.304 9.564-2.65 19.818-3.984 30.027-4.028 10.196.043 20.48 1.376 30.058 4.027 22.894-15.526 32.972-12.304 32.972-12.304 6.518 16.537 2.417 28.74 1.172 31.756 7.704 8.406 12.348 19.113 12.348 32.208 0 46.082-28.08 56.233-54.78 59.192 4.29 3.72 8.143 11.03 8.143 22.22 0 16.054-.146 28.973-.146 32.928 0 3.193 2.168 6.928 8.26 5.756C213.668 225.94 248 180.974 248 127.994 248 61.726 194.273 8 128.007 8l-.014.03z"/></symbol><symbol id="icon-home" viewBox="0 0 256 256"><path d="M248 161.293L128 68.016 8 161.293v-38.045L128 30l120 93.248v38.045zm-30-3.403V248h-60v-60.072H98V248H38v-90.11l90-67.582 90 67.582z"/></symbol></svg>