<?xml version="1.0" encoding="utf-8"?>
<!-- Generator: Adobe Illustrator 16.0.0, SVG Export Plug-In . SVG Version: 6.00 Build 0)  -->
<!DOCTYPE svg PUBLIC "-//W3C//DTD SVG 1.1 Tiny//EN" "http://www.w3.org/Graphics/SVG/1.1/DTD/svg11-tiny.dtd">
<svg version="1.1" baseProfile="tiny" id="Layer_1" xmlns="http://www.w3.org/2000/svg" xmlns:xlink="http://www.w3.org/1999/xlink"
	 x="0px" y="0px" width="256px" height="256px" viewBox="0 0 256 256" xml:space="preserve">
<g transform="translate(64 576)">
	<path d="M63.993-567.971C-2.273-567.971-56-514.244-56-447.978c0,53.025,34.378,97.993,82.056,113.855
		c6.005,1.113,8.202-2.606,8.202-5.771c0-2.871-0.117-12.318-0.161-22.338C0.7-354.966-6.33-376.396-6.33-376.396
		c-5.464-13.871-13.314-17.563-13.314-17.563c-10.898-7.455,0.82-7.279,0.82-7.279C-6.77-400.402-0.428-388.89-0.428-388.89
		c10.708,18.354,28.08,13.036,34.92,9.975c1.069-7.748,4.175-13.051,7.616-16.038c-26.658-3.032-54.679-13.33-54.679-59.309
		c0-13.095,4.702-23.802,12.362-32.209c-1.245-3.032-5.36-15.219,1.157-31.756c0,0,10.078-3.223,33.016,12.304
		c9.564-2.651,19.818-3.984,30.027-4.028c10.195,0.044,20.478,1.377,30.057,4.028c22.894-15.526,32.972-12.304,32.972-12.304
		c6.518,16.537,2.417,28.739,1.172,31.756c7.704,8.407,12.348,19.114,12.348,32.209c0,46.082-28.079,56.233-54.781,59.192
		c4.291,3.72,8.144,11.029,8.144,22.22c0,16.054-0.146,28.973-0.146,32.928c0,3.193,2.168,6.928,8.261,5.756
		C149.666-350.059,184-395.026,184-448.007C184-514.273,130.273-568,64.007-568L63.993-567.971z"/>
</g>
</svg>
